<svg xmlns="http://www.w3.org/2000/svg" width="137.167" height="86.149" viewBox="0 0 137.167 86.149">
  <g id="グループ_22" data-name="グループ 22" transform="translate(-526 -786)">
    <path id="パス_1" data-name="パス 1" d="M190.709,54.065h-3.131V45.81a.726.726,0,0,0-1.449,0v8.907a.679.679,0,0,0,.724.68h3.856a.667.667,0,0,0,0-1.332Z" transform="translate(384.853 798.747)" fill="#fff"/>
    <path id="パス_2" data-name="パス 2" d="M195.519,45.9a1.01,1.01,0,0,0-1.961,0l-2.584,8.6a.923.923,0,0,0-.051.284.692.692,0,0,0,.755.651.674.674,0,0,0,.675-.479l.64-2.31h3.092l.653,2.278a.664.664,0,0,0,.675.511.692.692,0,0,0,.755-.651,1.046,1.046,0,0,0-.042-.264Zm-.981,1.221.186.7.995,3.511h-2.362l.995-3.513Z" transform="translate(386.213 798.747)" fill="#fff"/>
    <path id="パス_3" data-name="パス 3" d="M202.3,50.128A2.52,2.52,0,0,0,203.342,48c0-1.807-1.105-2.843-3.03-2.843h-1.929a.682.682,0,0,0-.724.682v8.877a.673.673,0,0,0,.724.68H200.5c1.991,0,3.178-1.1,3.178-2.929A2.4,2.4,0,0,0,202.3,50.128Zm-1.993-.6h-1.2V46.484h1.2a1.525,1.525,0,1,1,0,3.048Zm.187,4.526h-1.391V50.866h1.407a1.6,1.6,0,1,1-.015,3.192Z" transform="translate(388.123 798.753)" fill="#fff"/>
    <path id="パス_4" data-name="パス 4" d="M206.7,45.06a3.142,3.142,0,0,0-3.205,3.222v4.032a3.205,3.205,0,1,0,6.41,0V48.282A3.143,3.143,0,0,0,206.7,45.06Zm0,9.142a1.786,1.786,0,0,1-1.757-1.888V48.282a1.762,1.762,0,1,1,3.514,0v4.032A1.767,1.767,0,0,1,206.7,54.2Z" transform="translate(389.777 798.727)" fill="#fff"/>
    <path id="パス_5" data-name="パス 5" d="M214.07,51.062a2.958,2.958,0,0,0,1.744-2.833,3,3,0,0,0-3.195-3.077h-2.058a.674.674,0,0,0-.724.682v8.905a.725.725,0,0,0,1.448,0V51.348h1.332L214.673,55a.714.714,0,0,0,.665.418.7.7,0,0,0,.721-.682.873.873,0,0,0-.107-.4Zm.308-2.833a1.635,1.635,0,0,1-1.773,1.785h-1.319v-3.53h1.334A1.641,1.641,0,0,1,214.378,48.229Z" transform="translate(391.576 798.753)" fill="#fff"/>
    <path id="パス_6" data-name="パス 6" d="M220.149,45.9a1.012,1.012,0,0,0-1.964,0l-2.581,8.6a.844.844,0,0,0-.053.284.694.694,0,0,0,.755.651.671.671,0,0,0,.674-.479l.642-2.31h3.093l.652,2.278a.664.664,0,0,0,.676.511.691.691,0,0,0,.752-.651,1.111,1.111,0,0,0-.041-.264Zm-.982,1.221.187.7.995,3.511h-2.363l.995-3.513Z" transform="translate(393.196 798.747)" fill="#fff"/>
    <path id="パス_7" data-name="パス 7" d="M226.98,45.152h-5.462a.666.666,0,0,0,0,1.332h2v8.255a.726.726,0,0,0,1.449,0V46.484h2.008a.666.666,0,0,0,0-1.332Z" transform="translate(394.704 798.753)" fill="#fff"/>
    <path id="パス_8" data-name="パス 8" d="M230,45.06a3.144,3.144,0,0,0-3.208,3.222v4.032a3.207,3.207,0,1,0,6.414,0V48.282A3.145,3.145,0,0,0,230,45.06Zm0,9.142a1.787,1.787,0,0,1-1.76-1.888V48.282a1.763,1.763,0,1,1,3.517,0v4.032A1.767,1.767,0,0,1,230,54.2Z" transform="translate(396.384 798.727)" fill="#fff"/>
    <path id="パス_9" data-name="パス 9" d="M237.369,51.062a2.959,2.959,0,0,0,1.743-2.833,3,3,0,0,0-3.192-3.077h-2.059a.673.673,0,0,0-.723.682v8.905a.727.727,0,0,0,1.45,0V51.348h1.328L237.973,55a.71.71,0,0,0,.664.418.7.7,0,0,0,.724-.682.893.893,0,0,0-.108-.4Zm.309-2.833a1.635,1.635,0,0,1-1.771,1.785h-1.318v-3.53h1.331A1.641,1.641,0,0,1,237.678,48.229Z" transform="translate(398.183 798.753)" fill="#fff"/>
    <path id="パス_10" data-name="パス 10" d="M244.84,45.119a.7.7,0,0,0-.589.356l-2.232,4.019-2.21-4a.724.724,0,0,0-1.359.318.831.831,0,0,0,.108.386l2.738,4.664v3.884a.727.727,0,0,0,1.452,0V50.864l2.735-4.664a.8.8,0,0,0,.11-.386A.709.709,0,0,0,244.84,45.119Z" transform="translate(399.689 798.744)" fill="#fff"/>
    <path id="パス_11" data-name="パス 11" d="M169.6,54.065h-3.129V45.81a.727.727,0,0,0-1.45,0v8.907a.681.681,0,0,0,.724.68H169.6a.667.667,0,0,0,0-1.332Z" transform="translate(378.867 798.747)" fill="#fff"/>
    <path id="パス_12" data-name="パス 12" d="M170.8,45.13a.673.673,0,0,0-.724.68v8.935a.725.725,0,0,0,1.448,0V45.81A.672.672,0,0,0,170.8,45.13Z" transform="translate(380.302 798.747)" fill="#fff"/>
    <path id="パス_13" data-name="パス 13" d="M177.389,45.152h-4.016a.682.682,0,0,0-.725.682v8.905a.726.726,0,0,0,1.449,0V51h3.292a.666.666,0,0,0,0-1.331H174.1V46.484h3.292a.666.666,0,0,0,0-1.332Z" transform="translate(381.031 798.753)" fill="#fff"/>
    <path id="パス_14" data-name="パス 14" d="M182.672,46.484a.666.666,0,0,0,0-1.332h-3.987a.69.69,0,0,0-.725.682v8.877a.68.68,0,0,0,.725.68h3.987a.666.666,0,0,0,0-1.332H179.41V50.9h3.262a.667.667,0,0,0,0-1.334H179.41V46.484Z" transform="translate(382.537 798.753)" fill="#fff"/>
    <path id="パス_15" data-name="パス 15" d="M200.943,13.975a2.713,2.713,0,0,0-2,1.158L191.617,27.81a2.732,2.732,0,0,0,0,2.318l7.321,12.679a2.4,2.4,0,0,0,.873.8,2.432,2.432,0,0,0,1.132.356h5.2l-7.282-12.607a5.132,5.132,0,0,1,0-4.775l7.279-12.608Z" transform="translate(386.336 789.913)" fill="#fff"/>
    <path id="パス_16" data-name="パス 16" d="M206.526,13.975l-7.278,12.608a5.112,5.112,0,0,0,0,4.775l7.28,12.607,6.909,0-7.282-12.61a5.132,5.132,0,0,1,0-4.775l7.279-12.608Z" transform="translate(388.406 789.913)" fill="#fff"/>
    <path id="パス_17" data-name="パス 17" d="M219.38,27.54,212.1,14.932l-1.23,2.126,6.053,10.483a2.744,2.744,0,0,1,0,2.317L210.871,40.34l1.228,2.128,7.28-12.611A2.72,2.72,0,0,0,219.38,27.54Z" transform="translate(391.869 790.184)" fill="#fff"/>
    <rect id="長方形_24" data-name="長方形 24" width="137.167" height="86.149" transform="translate(526 786)" fill="none"/>
    <rect id="長方形_25" data-name="長方形 25" width="101.396" height="50.375" transform="translate(543.885 803.887)" fill="none"/>
  </g>
</svg>
