<svg id="グループ_58" data-name="グループ 58" xmlns="http://www.w3.org/2000/svg" width="264.668" height="34.493" viewBox="0 0 264.668 34.493">
  <g id="グループ_14" data-name="グループ 14" transform="translate(72.603 7.327)">
    <g id="グループ_13" data-name="グループ 13">
      <g id="グループ_12" data-name="グループ 12">
        <g id="グループ_11" data-name="グループ 11">
          <g id="グループ_10" data-name="グループ 10">
            <g id="グループ_9" data-name="グループ 9">
              <g id="グループ_8" data-name="グループ 8" transform="translate(51.328)">
                <path id="パス_18" data-name="パス 18" d="M2316.159,193.77h-5.929V178.133a1.374,1.374,0,0,0-2.743,0V195a1.286,1.286,0,0,0,1.372,1.292h7.3a1.262,1.262,0,0,0,0-2.522Z" transform="translate(-2307.486 -176.675)" fill="#180d09"/>
                <path id="パス_19" data-name="パス 19" d="M2324.722,178.3a1.913,1.913,0,0,0-3.715,0l-4.894,16.283a1.674,1.674,0,0,0-.1.536,1.309,1.309,0,0,0,1.427,1.234,1.272,1.272,0,0,0,1.278-.907l1.212-4.376h5.86l1.235,4.315a1.259,1.259,0,0,0,1.284.969,1.311,1.311,0,0,0,1.428-1.234,2.286,2.286,0,0,0-.081-.5Zm-1.858,2.31.355,1.338,1.884,6.65h-4.477l1.888-6.655Z" transform="translate(-2304.361 -176.675)" fill="#180d09"/>
                <path id="パス_20" data-name="パス 20" d="M2336.8,186.311a4.775,4.775,0,0,0,1.965-4.043c0-3.424-2.092-5.386-5.743-5.386h-3.65a1.293,1.293,0,0,0-1.375,1.292v16.811a1.278,1.278,0,0,0,1.375,1.292h4.01c3.771,0,6.019-2.074,6.019-5.548A4.551,4.551,0,0,0,2336.8,186.311Zm-3.778-1.129h-2.279V179.41h2.279a2.888,2.888,0,1,1,0,5.773Zm.359,8.573h-2.638v-6.05h2.665c2.063,0,3.245,1.1,3.245,3.024S2335.464,193.755,2333.384,193.755Z" transform="translate(-2299.972 -176.661)" fill="#180d09"/>
                <path id="パス_21" data-name="パス 21" d="M2344.458,176.72a5.955,5.955,0,0,0-6.073,6.1v7.632a6.075,6.075,0,1,0,12.149,0v-7.632A5.957,5.957,0,0,0,2344.458,176.72Zm0,17.313a3.384,3.384,0,0,1-3.327-3.578v-7.632a3.337,3.337,0,1,1,6.658,0v7.632A3.347,3.347,0,0,1,2344.458,194.033Z" transform="translate(-2296.169 -176.72)" fill="#180d09"/>
                <path id="パス_22" data-name="パス 22" d="M2357.692,188.074a5.6,5.6,0,0,0,3.3-5.367,5.682,5.682,0,0,0-6.05-5.826h-3.9a1.279,1.279,0,0,0-1.372,1.292v16.869a1.374,1.374,0,0,0,2.743,0v-6.426h2.523l3.894,6.923a1.345,1.345,0,0,0,1.254.792,1.317,1.317,0,0,0,1.372-1.29,1.636,1.636,0,0,0-.2-.754Zm.588-5.367a3.1,3.1,0,0,1-3.36,3.386h-2.5V179.41h2.526A3.106,3.106,0,0,1,2358.28,182.708Z" transform="translate(-2292.033 -176.661)" fill="#180d09"/>
                <path id="パス_23" data-name="パス 23" d="M2368.551,178.3a1.915,1.915,0,0,0-3.718,0l-4.892,16.283a1.662,1.662,0,0,0-.1.536,1.311,1.311,0,0,0,1.428,1.234,1.279,1.279,0,0,0,1.28-.907l1.212-4.376h5.86l1.235,4.315a1.256,1.256,0,0,0,1.281.969,1.31,1.31,0,0,0,1.427-1.234,2.049,2.049,0,0,0-.08-.5Zm-1.858,2.31.353,1.338,1.884,6.65h-4.475l1.887-6.655Z" transform="translate(-2288.309 -176.675)" fill="#180d09"/>
                <path id="パス_24" data-name="パス 24" d="M2380.88,176.882h-10.343a1.264,1.264,0,0,0,0,2.528h3.8v15.634a1.376,1.376,0,0,0,2.746,0V179.41h3.8a1.264,1.264,0,0,0,0-2.528Z" transform="translate(-2284.843 -176.661)" fill="#180d09"/>
                <path id="パス_25" data-name="パス 25" d="M2385.921,176.72a5.954,5.954,0,0,0-6.073,6.1v7.632a6.073,6.073,0,1,0,12.146,0v-7.632A5.954,5.954,0,0,0,2385.921,176.72Zm0,17.313a3.384,3.384,0,0,1-3.331-3.578v-7.632a3.338,3.338,0,1,1,6.659,0v7.632A3.345,3.345,0,0,1,2385.921,194.033Z" transform="translate(-2280.982 -176.72)" fill="#180d09"/>
                <path id="パス_26" data-name="パス 26" d="M2399.151,188.074a5.6,5.6,0,0,0,3.307-5.367,5.683,5.683,0,0,0-6.047-5.826h-3.9a1.275,1.275,0,0,0-1.369,1.292v16.869a1.373,1.373,0,0,0,2.741,0v-6.426h2.523l3.894,6.923a1.346,1.346,0,0,0,1.256.792,1.319,1.319,0,0,0,1.372-1.29,1.679,1.679,0,0,0-.206-.754Zm.587-5.367a3.1,3.1,0,0,1-3.356,3.386h-2.5V179.41h2.529A3.1,3.1,0,0,1,2399.739,182.708Z" transform="translate(-2276.846 -176.661)" fill="#180d09"/>
                <path id="パス_27" data-name="パス 27" d="M2412.694,176.824a1.3,1.3,0,0,0-1.112.678l-4.227,7.61-4.186-7.576a1.374,1.374,0,0,0-2.578.6,1.559,1.559,0,0,0,.2.728l5.19,8.838v7.359a1.373,1.373,0,0,0,2.74,0v-7.359l5.188-8.836a1.548,1.548,0,0,0,.208-.731A1.345,1.345,0,0,0,2412.694,176.824Z" transform="translate(-2273.385 -176.682)" fill="#180d09"/>
              </g>
              <path id="パス_28" data-name="パス 28" d="M2278.594,193.77h-5.929V178.133a1.376,1.376,0,0,0-2.746,0V195a1.289,1.289,0,0,0,1.375,1.292h7.3a1.263,1.263,0,0,0,0-2.522Z" transform="translate(-2269.918 -176.675)" fill="#f08800"/>
              <path id="パス_29" data-name="パス 29" d="M2280.291,176.843a1.274,1.274,0,0,0-1.369,1.29v16.925a1.374,1.374,0,0,0,2.743,0V178.133A1.276,1.276,0,0,0,2280.291,176.843Z" transform="translate(-2266.62 -176.675)" fill="#f08800"/>
              <path id="パス_30" data-name="パス 30" d="M2292.475,176.882h-7.6a1.291,1.291,0,0,0-1.374,1.292v16.869a1.374,1.374,0,0,0,2.743,0v-7.092h6.236a1.261,1.261,0,0,0,0-2.522h-6.236v-6.02h6.236a1.264,1.264,0,0,0,0-2.528Z" transform="translate(-2264.945 -176.661)" fill="#f08800"/>
              <path id="パス_31" data-name="パス 31" d="M2301.872,179.41a1.264,1.264,0,0,0,0-2.528h-7.548a1.308,1.308,0,0,0-1.375,1.292v16.811a1.289,1.289,0,0,0,1.375,1.292h7.548a1.261,1.261,0,0,0,0-2.522h-6.177v-5.994h6.177a1.262,1.262,0,0,0,0-2.523h-6.177V179.41Z" transform="translate(-2261.482 -176.661)" fill="#f08800"/>
            </g>
          </g>
        </g>
      </g>
    </g>
  </g>
  <g id="グループ_16" data-name="グループ 16">
    <g id="グループ_15" data-name="グループ 15">
      <path id="パス_32" data-name="パス 32" d="M2241.844,171.357a3.144,3.144,0,0,0-2.31,1.333l-8.416,14.579a3.131,3.131,0,0,0,0,2.666l8.416,14.581a2.84,2.84,0,0,0,1.006.925,2.8,2.8,0,0,0,1.3.409h5.975l-8.375-14.5a5.891,5.891,0,0,1,0-5.492l8.37-14.5Z" transform="translate(-2230.82 -171.357)" fill="#f08800"/>
      <path id="パス_33" data-name="パス 33" d="M2247.754,171.359l-8.372,14.5a5.914,5.914,0,0,0,0,5.492l8.374,14.5h7.946l-8.375-14.5a5.916,5.916,0,0,1,0-5.492l8.375-14.5Z" transform="translate(-2227.932 -171.356)" fill="#180d09"/>
    </g>
    <path id="パス_34" data-name="パス 34" d="M2261.687,186.892l-8.374-14.5-1.413,2.446,6.961,12.055a3.155,3.155,0,0,1,0,2.664l-6.961,12.056,1.414,2.444,8.372-14.5A3.141,3.141,0,0,0,2261.687,186.892Z" transform="translate(-2223.099 -170.978)" fill="#f08800"/>
  </g>
</svg>
