<svg id="グループ_17" data-name="グループ 17" xmlns="http://www.w3.org/2000/svg" width="283.052" height="36.889" viewBox="0 0 283.052 36.889">
  <g id="グループ_14" data-name="グループ 14" transform="translate(77.646 7.836)">
    <g id="グループ_13" data-name="グループ 13">
      <g id="グループ_12" data-name="グループ 12">
        <g id="グループ_11" data-name="グループ 11">
          <g id="グループ_10" data-name="グループ 10">
            <g id="グループ_9" data-name="グループ 9">
              <g id="グループ_8" data-name="グループ 8" transform="translate(54.893)">
                <path id="パス_18" data-name="パス 18" d="M2316.761,194.945h-6.342V178.222a1.47,1.47,0,0,0-2.934,0V196.26a1.375,1.375,0,0,0,1.467,1.382h7.809a1.35,1.35,0,0,0,0-2.7Z" transform="translate(-2307.486 -176.663)" fill="#180d09"/>
                <path id="パス_19" data-name="パス 19" d="M2325.327,178.4a2.046,2.046,0,0,0-3.973,0l-5.234,17.414a1.789,1.789,0,0,0-.1.573,1.4,1.4,0,0,0,1.527,1.319,1.36,1.36,0,0,0,1.366-.97l1.3-4.68h6.267l1.321,4.614a1.347,1.347,0,0,0,1.374,1.036,1.4,1.4,0,0,0,1.527-1.319,2.415,2.415,0,0,0-.086-.533Zm-1.987,2.471.38,1.431,2.015,7.112h-4.788l2.019-7.117Z" transform="translate(-2303.551 -176.663)" fill="#180d09"/>
                <path id="パス_20" data-name="パス 20" d="M2337.414,186.966a5.106,5.106,0,0,0,2.1-4.324c0-3.662-2.237-5.76-6.142-5.76h-3.9a1.383,1.383,0,0,0-1.47,1.382v17.978a1.367,1.367,0,0,0,1.47,1.382h4.288c4.033,0,6.437-2.218,6.437-5.934A4.867,4.867,0,0,0,2337.414,186.966Zm-4.04-1.207h-2.437v-6.173h2.437a3.089,3.089,0,1,1,0,6.173Zm.384,9.169h-2.822v-6.47h2.851c2.206,0,3.47,1.176,3.47,3.234S2335.982,194.927,2333.758,194.927Z" transform="translate(-2298.026 -176.645)" fill="#180d09"/>
                <path id="パス_21" data-name="パス 21" d="M2344.88,176.72a6.369,6.369,0,0,0-6.5,6.527v8.162a6.5,6.5,0,1,0,12.993,0v-8.162A6.371,6.371,0,0,0,2344.88,176.72Zm0,18.516a3.619,3.619,0,0,1-3.558-3.827v-8.162a3.569,3.569,0,1,1,7.121,0v8.162A3.58,3.58,0,0,1,2344.88,195.236Z" transform="translate(-2293.236 -176.72)" fill="#180d09"/>
                <path id="パス_22" data-name="パス 22" d="M2358.249,188.852a5.985,5.985,0,0,0,3.533-5.74c0-3.668-2.656-6.23-6.47-6.23h-4.169a1.367,1.367,0,0,0-1.467,1.382v18.041a1.47,1.47,0,0,0,2.934,0v-6.872h2.7l4.165,7.4a1.439,1.439,0,0,0,1.341.847,1.408,1.408,0,0,0,1.467-1.379,1.748,1.748,0,0,0-.218-.807Zm.628-5.74a3.315,3.315,0,0,1-3.593,3.621h-2.674v-7.148h2.7A3.322,3.322,0,0,1,2358.877,183.112Z" transform="translate(-2288.029 -176.645)" fill="#180d09"/>
                <path id="パス_23" data-name="パス 23" d="M2369.156,178.4a2.048,2.048,0,0,0-3.976,0l-5.231,17.414a1.776,1.776,0,0,0-.105.573,1.4,1.4,0,0,0,1.527,1.319,1.369,1.369,0,0,0,1.369-.97l1.3-4.68h6.267l1.321,4.614a1.343,1.343,0,0,0,1.371,1.036,1.4,1.4,0,0,0,1.527-1.319,2.2,2.2,0,0,0-.086-.533Zm-1.987,2.471.377,1.431,2.015,7.112h-4.785l2.018-7.117Z" transform="translate(-2283.34 -176.663)" fill="#180d09"/>
                <path id="パス_24" data-name="パス 24" d="M2381.683,176.882h-11.061a1.352,1.352,0,0,0,0,2.7h4.063v16.72a1.471,1.471,0,0,0,2.937,0v-16.72h4.061a1.352,1.352,0,0,0,0-2.7Z" transform="translate(-2278.976 -176.645)" fill="#180d09"/>
                <path id="パス_25" data-name="パス 25" d="M2386.343,176.72a6.367,6.367,0,0,0-6.495,6.527v8.162a6.5,6.5,0,1,0,12.99,0v-8.162A6.367,6.367,0,0,0,2386.343,176.72Zm0,18.516a3.619,3.619,0,0,1-3.562-3.827v-8.162a3.57,3.57,0,1,1,7.122,0v8.162A3.577,3.577,0,0,1,2386.343,195.236Z" transform="translate(-2274.115 -176.72)" fill="#180d09"/>
                <path id="パス_26" data-name="パス 26" d="M2399.708,188.852a5.986,5.986,0,0,0,3.536-5.74c0-3.668-2.659-6.23-6.467-6.23H2392.6a1.363,1.363,0,0,0-1.464,1.382v18.041a1.468,1.468,0,0,0,2.931,0v-6.872h2.7l4.165,7.4a1.441,1.441,0,0,0,1.344.847,1.41,1.41,0,0,0,1.467-1.379,1.8,1.8,0,0,0-.221-.807Zm.628-5.74a3.313,3.313,0,0,1-3.59,3.621h-2.674v-7.148h2.705A3.319,3.319,0,0,1,2400.336,183.112Z" transform="translate(-2268.907 -176.645)" fill="#180d09"/>
                <path id="パス_27" data-name="パス 27" d="M2413.534,176.824a1.394,1.394,0,0,0-1.189.725l-4.521,8.139-4.477-8.1a1.47,1.47,0,0,0-2.757.646,1.664,1.664,0,0,0,.219.779l5.551,9.452v7.87a1.468,1.468,0,0,0,2.931,0v-7.87l5.548-9.449a1.658,1.658,0,0,0,.222-.782A1.438,1.438,0,0,0,2413.534,176.824Z" transform="translate(-2264.549 -176.672)" fill="#180d09"/>
              </g>
              <path id="パス_28" data-name="パス 28" d="M2279.2,194.945h-6.341V178.222a1.471,1.471,0,0,0-2.937,0V196.26a1.378,1.378,0,0,0,1.47,1.382h7.808a1.35,1.35,0,0,0,0-2.7Z" transform="translate(-2269.918 -176.663)" fill="#f08800"/>
              <path id="パス_29" data-name="パス 29" d="M2280.386,176.843a1.362,1.362,0,0,0-1.464,1.379v18.1a1.47,1.47,0,0,0,2.934,0v-18.1A1.364,1.364,0,0,0,2280.386,176.843Z" transform="translate(-2265.766 -176.663)" fill="#f08800"/>
              <path id="パス_30" data-name="パス 30" d="M2293.1,176.882h-8.133a1.381,1.381,0,0,0-1.47,1.382v18.041a1.47,1.47,0,0,0,2.934,0V188.72h6.669a1.349,1.349,0,0,0,0-2.7h-6.669v-6.438h6.669a1.352,1.352,0,0,0,0-2.7Z" transform="translate(-2263.656 -176.645)" fill="#f08800"/>
              <path id="パス_31" data-name="パス 31" d="M2302.492,179.585a1.352,1.352,0,0,0,0-2.7h-8.073a1.4,1.4,0,0,0-1.47,1.382v17.978a1.378,1.378,0,0,0,1.47,1.382h8.073a1.349,1.349,0,0,0,0-2.7h-6.606v-6.41h6.606a1.35,1.35,0,0,0,0-2.7h-6.606v-6.233Z" transform="translate(-2259.297 -176.645)" fill="#f08800"/>
            </g>
          </g>
        </g>
      </g>
    </g>
  </g>
  <g id="グループ_16" data-name="グループ 16">
    <g id="グループ_15" data-name="グループ 15">
      <path id="パス_32" data-name="パス 32" d="M2242.61,171.357a3.361,3.361,0,0,0-2.471,1.426l-9,15.592a3.345,3.345,0,0,0,0,2.851l9,15.594a3.034,3.034,0,0,0,1.076.989,3,3,0,0,0,1.4.437H2249l-8.957-15.507a6.3,6.3,0,0,1,0-5.874l8.951-15.5Z" transform="translate(-2230.82 -171.357)" fill="#f08800"/>
      <path id="パス_33" data-name="パス 33" d="M2248.382,171.359l-8.954,15.5a6.326,6.326,0,0,0,0,5.874l8.956,15.507h8.5l-8.957-15.507a6.326,6.326,0,0,1,0-5.874l8.957-15.5Z" transform="translate(-2227.184 -171.356)" fill="#180d09"/>
    </g>
    <path id="パス_34" data-name="パス 34" d="M2262.366,187.9l-8.956-15.507-1.511,2.616,7.445,12.892a3.374,3.374,0,0,1,0,2.849l-7.445,12.893,1.512,2.614,8.954-15.507A3.362,3.362,0,0,0,2262.366,187.9Z" transform="translate(-2221.099 -170.88)" fill="#f08800"/>
  </g>
</svg>
